# xmcd CD database file
#
# Track frame offsets:
#	150
#	22200
#	53974
#	92216
#	129499
#	157298
#	182492
#	208297
#	245637
#	257895
#
# Disc length: 3596 seconds
#
# Revision: 2
# Processed by: cddbd v1.5.2PL0 Copyright (c) Steve Scherf et al.
# Submitted via: CDex 1.70beta2
#
DISCID=9a0e0a0a
DTITLE=Keith Jarrett - Somewhere Before: The Atlantic Years 1968-75-2
DYEAR=1975
DGENRE=Jazz
TTITLE0=Grow Your Own
TTITLE1=Como En Vietnam
TTITLE2=Fortune Smiles
TTITLE3=Raven Speaks
TTITLE4=Birth
TTITLE5=Mortgage On My Soul (Wah-Wah)
TTITLE6=Toll Road
TTITLE7=Gypsy Moth
TTITLE8=Pardon My Rags
TTITLE9=Old Rag
EXTD=YEAR: 1975
EXTT0=
EXTT1=
EXTT2=
EXTT3=
EXTT4=
EXTT5=
EXTT6=
EXTT7=
EXTT8=
EXTT9=
PLAYORDER=
